<?xml version="1.0" encoding="UTF-8" standalone="no"?>
<svg width="140px" height="46px" viewBox="0 0 140 46" version="1.1" xmlns="http://www.w3.org/2000/svg" xmlns:xlink="http://www.w3.org/1999/xlink">
    <!-- Generator: Sketch 3.6.1 (26313) - http://www.bohemiancoding.com/sketch -->
    <title>Group 5</title>
    <desc>Created with Sketch.</desc>
    <defs></defs>
    <g id="Page-1" stroke="none" stroke-width="1" fill="none" fill-rule="evenodd">
        <g id="Group-5" transform="translate(1.000000, 1.000000)">
            <path d="M41.8600006,43.7200012 C53.9329456,43.7200012 63.7200012,33.9329456 63.7200012,21.8600006 C63.7200012,9.78705564 53.9329456,-2.48689958e-14 41.8600006,-2.48689958e-14 C29.7870556,-2.48689958e-14 20,9.78705564 20,21.8600006 C20,33.9329456 29.7870556,43.7200012 41.8600006,43.7200012 Z" id="Oval" stroke="#CACACA" fill="#E3E3E3"></path>
            <path d="M91.0800018,36.7200012 C99.0108112,36.7200012 105.440002,30.29081 105.440002,22.3600006 C105.440002,14.4291913 99.0108112,8 91.0800018,8 C83.1491925,8 76.7200012,14.4291913 76.7200012,22.3600006 C76.7200012,30.29081 83.1491925,36.7200012 91.0800018,36.7200012 Z" id="Oval-Copy-2" stroke="#CACACA" fill="#E3E3E3"></path>
            <path d="M128.860001,30.7200012 C133.753244,30.7200012 137.720001,26.7532438 137.720001,21.8600006 C137.720001,16.9667574 133.753244,13 128.860001,13 C123.966757,13 120,16.9667574 120,21.8600006 C120,26.7532438 123.966757,30.7200012 128.860001,30.7200012 Z" id="Oval-Copy" stroke="#CACACA" fill="#E3E3E3"></path>
            <path d="M5.52814597,0 L0,0 L0,43.7200012 L5.52814597,43.7200012" id="Page-1" stroke="#4A4A4A"></path>
        </g>
    </g>
</svg>