<?xml version="1.0" encoding="UTF-8" standalone="no"?>
<svg width="140px" height="31px" viewBox="0 0 140 31" version="1.1" xmlns="http://www.w3.org/2000/svg" xmlns:xlink="http://www.w3.org/1999/xlink">
    <!-- Generator: Sketch 3.6.1 (26313) - http://www.bohemiancoding.com/sketch -->
    <title>Group 7</title>
    <desc>Created with Sketch.</desc>
    <defs></defs>
    <g id="Page-1" stroke="none" stroke-width="1" fill="none" fill-rule="evenodd">
        <g id="Group-7" transform="translate(1.000000, 1.000000)" stroke="#CACACA">
            <path d="M24.5,13.5 L129.347586,13.5" id="Path-4" stroke-width="3"></path>
            <path d="M14.3600006,28.7200012 C22.29081,28.7200012 28.7200012,22.29081 28.7200012,14.3600006 C28.7200012,6.42919127 22.29081,1.77635684e-14 14.3600006,1.77635684e-14 C6.42919127,1.77635684e-14 -3.55271368e-14,6.42919127 -3.55271368e-14,14.3600006 C-3.55271368e-14,22.29081 6.42919127,28.7200012 14.3600006,28.7200012 Z" id="Oval-Copy-3" fill="#E3E3E3"></path>
            <path d="M128.860001,22.7200012 C133.753244,22.7200012 137.720001,18.7532438 137.720001,13.8600006 C137.720001,8.96675739 133.753244,5 128.860001,5 C123.966757,5 120,8.96675739 120,13.8600006 C120,18.7532438 123.966757,22.7200012 128.860001,22.7200012 Z" id="Oval-Copy-4" fill="#E3E3E3"></path>
        </g>
    </g>
</svg>