<?xml version="1.0" encoding="UTF-8" standalone="no"?>
<svg width="467px" height="120px" viewBox="0 0 467 120" version="1.1" xmlns="http://www.w3.org/2000/svg" xmlns:xlink="http://www.w3.org/1999/xlink">
    <!-- Generator: Sketch 3.6.1 (26313) - http://www.bohemiancoding.com/sketch -->
    <title>Slice 1</title>
    <desc>Created with Sketch.</desc>
    <defs></defs>
    <g id="Page-1" stroke="none" stroke-width="1" fill="none" fill-rule="evenodd">
        <g>
            <path d="M31.882,85.947 L30.34,85.947 L30.34,2.481 L31.882,2.481 L31.882,85.947 Z" id="Fill-1" fill="#E4E4E4"></path>
            <path d="M49.195,85.947 L47.655,85.947 L47.655,27.454 L49.195,27.454 L49.195,85.947 Z" id="Fill-2" fill="#E4E4E4"></path>
            <path d="M76.928,85.947 L75.388,85.947 L75.388,15.139 L76.928,15.139 L76.928,85.947 Z" id="Fill-3" fill="#E4E4E4"></path>
            <path d="M111.52,85.947 L109.978,85.947 L109.978,27.599 L111.52,27.599 L111.52,85.947 Z" id="Fill-4" fill="#ECBD00"></path>
            <path d="M128.833,85.947 L127.293,85.947 L127.293,27.599 L128.833,27.599 L128.833,85.947 Z" id="Fill-5" fill="#ECBD00"></path>
            <path d="M104.597,85.947 L103.053,85.947 L103.053,49.006 L104.597,49.006 L104.597,85.947 Z" id="Fill-6" fill="#ECBD00"></path>
            <path d="M59.582,85.947 L58.04,85.947 L58.04,42.504 L59.582,42.504 L59.582,85.947 Z" id="Fill-7" fill="#E4E4E4"></path>
            <path d="M180.771,85.947 L179.229,85.947 L179.229,42.504 L180.771,42.504 L180.771,85.947 Z" id="Fill-8" fill="#ECBD00"></path>
            <path d="M205.011,85.947 L203.469,85.947 L203.469,45.581 L205.011,45.581 L205.011,85.947 Z" id="Fill-9" fill="#ECBD00"></path>
            <path d="M250.023,85.947 L248.481,85.947 L248.481,45.581 L250.023,45.581 L250.023,85.947 Z" id="Fill-10" fill="#ECBD00"></path>
            <path d="M274.262,85.947 L272.72,85.947 L272.72,45.581 L274.262,45.581 L274.262,85.947 Z" id="Fill-11" fill="#ECBD00"></path>
            <path d="M277.724,85.947 L276.182,85.947 L276.182,45.581 L277.724,45.581 L277.724,85.947 Z" id="Fill-12" fill="#ECBD00"></path>
            <path d="M333.125,85.947 L331.583,85.947 L331.583,45.581 L333.125,45.581 L333.125,85.947 Z" id="Fill-13" fill="#ECBD00"></path>
            <path d="M267.335,85.947 L265.795,85.947 L265.795,45.581 L267.335,45.581 L267.335,85.947 Z" id="Fill-14" fill="#ECBD00"></path>
            <path d="M301.962,85.947 L300.42,85.947 L300.42,36.689 L301.962,36.689 L301.962,85.947 Z" id="Fill-15" fill="#ECBD00"></path>
            <path d="M298.5,85.947 L296.956,85.947 L296.956,33.956 L298.5,33.956 L298.5,85.947 Z" id="Fill-16" fill="#ECBD00"></path>
            <path d="M256.948,85.947 L255.408,85.947 L255.408,33.956 L256.948,33.956 L256.948,85.947 Z" id="Fill-17" fill="#ECBD00"></path>
            <path d="M198.084,85.947 L196.544,85.947 L196.544,48.66 L198.084,48.66 L198.084,85.947 Z" id="Fill-18" fill="#ECBD00"></path>
            <path d="M35.344,85.947 L33.802,85.947 L33.802,42.504 L35.344,42.504 L35.344,85.947 Z" id="Fill-19" fill="#E4E4E4"></path>
            <path d="M24.959,85.947 L23.415,85.947 L23.415,42.504 L24.959,42.504 L24.959,85.947 Z" id="Fill-20" fill="#E4E4E4"></path>
            <path d="M38.807,85.947 L37.265,85.947 L37.265,51.739 L38.807,51.739 L38.807,85.947 Z" id="Fill-21" fill="#E4E4E4"></path>
            <path d="M28.419,85.947 L26.877,85.947 L26.877,67.476 L28.419,67.476 L28.419,85.947 Z" id="Fill-22" fill="#E4E4E4"></path>
            <path d="M18.031,85.947 L16.491,85.947 L16.491,61.277 L18.031,61.277 L18.031,85.947 Z" id="Fill-23" fill="#E4E4E4"></path>
            <path d="M52.658,85.947 L51.114,85.947 L51.114,58.241 L52.658,58.241 L52.658,85.947 Z" id="Fill-24" fill="#E4E4E4"></path>
            <path d="M66.507,85.947 L64.965,85.947 L64.965,58.241 L66.507,58.241 L66.507,85.947 Z" id="Fill-25" fill="#E4E4E4"></path>
            <path d="M108.059,85.947 L106.515,85.947 L106.515,58.241 L108.059,58.241 L108.059,85.947 Z" id="Fill-26" fill="#ECBD00"></path>
            <path d="M146.147,85.947 L144.605,85.947 L144.605,58.241 L146.147,58.241 L146.147,85.947 Z" id="Fill-27" fill="#ECBD00"></path>
            <path d="M288.113,85.947 L286.571,85.947 L286.571,58.241 L288.113,58.241 L288.113,85.947 Z" id="Fill-28" fill="#ECBD00"></path>
            <path d="M319.276,85.947 L317.734,85.947 L317.734,58.241 L319.276,58.241 L319.276,85.947 Z" id="Fill-29" fill="#ECBD00"></path>
            <path d="M343.657,85.947 L342.115,85.947 L342.115,55.162 L343.657,55.162 L343.657,85.947 Z" id="Fill-30" fill="#ECBD00"></path>
            <path d="M312.349,85.947 L310.807,85.947 L310.807,55.162 L312.349,55.162 L312.349,85.947 Z" id="Fill-31" fill="#ECBD00"></path>
            <path d="M315.812,85.947 L314.272,85.947 L314.272,52.083 L315.812,52.083 L315.812,85.947 Z" id="Fill-32" fill="#ECBD00"></path>
            <path d="M305.425,85.947 L303.883,85.947 L303.883,52.083 L305.425,52.083 L305.425,85.947 Z" id="Fill-33" fill="#ECBD00"></path>
            <path d="M308.853,85.947 L307.311,85.947 L307.311,55.162 L308.853,55.162 L308.853,85.947 Z" id="Fill-34" fill="#ECBD00"></path>
            <path d="M284.65,85.947 L283.106,85.947 L283.106,61.277 L284.65,61.277 L284.65,85.947 Z" id="Fill-35" fill="#ECBD00"></path>
            <path d="M218.86,85.947 L217.318,85.947 L217.318,61.277 L218.86,61.277 L218.86,85.947 Z" id="Fill-36" fill="#ECBD00"></path>
            <path d="M322.738,85.947 L321.196,85.947 L321.196,64.397 L322.738,64.397 L322.738,85.947 Z" id="Fill-37" fill="#ECBD00"></path>
            <path d="M232.711,85.947 L231.167,85.947 L231.167,64.397 L232.711,64.397 L232.711,85.947 Z" id="Fill-38" fill="#ECBD00"></path>
            <path d="M201.547,85.947 L200.007,85.947 L200.007,67.303 L201.547,67.303 L201.547,85.947 Z" id="Fill-39" fill="#ECBD00"></path>
            <path d="M215.396,85.947 L213.856,85.947 L213.856,70.555 L215.396,70.555 L215.396,85.947 Z" id="Fill-40" fill="#ECBD00"></path>
            <path d="M222.324,85.947 L220.78,85.947 L220.78,70.555 L222.324,70.555 L222.324,85.947 Z" id="Fill-41" fill="#ECBD00"></path>
            <path d="M260.412,85.947 L258.87,85.947 L258.87,70.555 L260.412,70.555 L260.412,85.947 Z" id="Fill-42" fill="#ECBD00"></path>
            <path d="M253.486,85.947 L251.946,85.947 L251.946,73.632 L253.486,73.632 L253.486,85.947 Z" id="Fill-43" fill="#ECBD00"></path>
            <path d="M340.195,85.947 L338.653,85.947 L338.653,73.632 L340.195,73.632 L340.195,85.947 Z" id="Fill-44" fill="#ECBD00"></path>
            <path d="M364.431,85.947 L362.891,85.947 L362.891,76.572 L364.431,76.572 L364.431,85.947 Z" id="Fill-45" fill="#ECBD00"></path>
            <path d="M371.36,85.947 L369.818,85.947 L369.818,79.791 L371.36,79.791 L371.36,85.947 Z" id="Fill-46" fill="#ECBD00"></path>
            <path d="M395.596,85.947 L394.056,85.947 L394.056,79.791 L395.596,79.791 L395.596,85.947 Z" id="Fill-47" fill="#ECBD00"></path>
            <path d="M423.295,85.947 L421.755,85.947 L421.755,79.791 L423.295,79.791 L423.295,85.947 Z" id="Fill-48" fill="#ECBD00"></path>
            <path d="M437.146,85.947 L435.604,85.947 L435.604,82.868 L437.146,82.868 L437.146,85.947 Z" id="Fill-49" fill="#ECBD00"></path>
            <path d="M388.67,85.947 L387.128,85.947 L387.128,82.868 L388.67,82.868 L388.67,85.947 Z" id="Fill-50" fill="#ECBD00"></path>
            <path d="M360.969,85.947 L359.429,85.947 L359.429,82.868 L360.969,82.868 L360.969,85.947 Z" id="Fill-51" fill="#ECBD00"></path>
            <path d="M354.044,85.947 L352.502,85.947 L352.502,82.868 L354.044,82.868 L354.044,85.947 Z" id="Fill-52" fill="#ECBD00"></path>
            <path d="M426.758,85.947 L425.218,85.947 L425.218,76.572 L426.758,76.572 L426.758,85.947 Z" id="Fill-53" fill="#ECBD00"></path>
            <path d="M246.561,85.947 L245.017,85.947 L245.017,73.632 L246.561,73.632 L246.561,85.947 Z" id="Fill-54" fill="#ECBD00"></path>
            <path d="M225.785,85.947 L224.243,85.947 L224.243,79.791 L225.785,79.791 L225.785,85.947 Z" id="Fill-55" fill="#ECBD00"></path>
            <path d="M263.873,85.947 L262.333,85.947 L262.333,76.712 L263.873,76.712 L263.873,85.947 Z" id="Fill-56" fill="#ECBD00"></path>
            <path d="M239.636,85.947 L238.094,85.947 L238.094,82.868 L239.636,82.868 L239.636,85.947 Z" id="Fill-57" fill="#ECBD00"></path>
            <path d="M243.098,85.947 L241.556,85.947 L241.556,82.868 L243.098,82.868 L243.098,85.947 Z" id="Fill-58" fill="#ECBD00"></path>
            <path d="M229.249,85.947 L227.707,85.947 L227.707,73.632 L229.249,73.632 L229.249,85.947 Z" id="Fill-59" fill="#ECBD00"></path>
            <path d="M291.575,85.947 L290.033,85.947 L290.033,70.555 L291.575,70.555 L291.575,85.947 Z" id="Fill-60" fill="#ECBD00"></path>
            <path d="M399.057,85.947 L397.515,85.947 L397.515,70.555 L399.057,70.555 L399.057,85.947 Z" id="Fill-61" fill="#ECBD00"></path>
            <path d="M405.983,85.947 L404.441,85.947 L404.441,67.476 L405.983,67.476 L405.983,85.947 Z" id="Fill-62" fill="#ECBD00"></path>
            <path d="M347.12,85.947 L345.578,85.947 L345.578,64.397 L347.12,64.397 L347.12,85.947 Z" id="Fill-63" fill="#ECBD00"></path>
            <path d="M392.132,85.947 L390.59,85.947 L390.59,64.397 L392.132,64.397 L392.132,85.947 Z" id="Fill-64" fill="#ECBD00"></path>
            <path d="M412.908,85.947 L411.368,85.947 L411.368,64.397 L412.908,64.397 L412.908,85.947 Z" id="Fill-65" fill="#ECBD00"></path>
            <path d="M450.996,85.947 L449.454,85.947 L449.454,52.083 L450.996,52.083 L450.996,85.947 Z" id="Fill-66" fill="#ECBD00"></path>
            <path d="M326.201,85.947 L324.659,85.947 L324.659,58.241 L326.201,58.241 L326.201,85.947 Z" id="Fill-67" fill="#ECBD00"></path>
            <path d="M132.296,85.947 L130.752,85.947 L130.752,61.32 L132.296,61.32 L132.296,85.947 Z" id="Fill-68" fill="#ECBD00"></path>
            <path d="M69.969,85.947 L68.429,85.947 L68.429,61.32 L69.969,61.32 L69.969,85.947 Z" id="Fill-69" fill="#E4E4E4"></path>
            <path d="M97.67,85.947 L96.128,85.947 L96.128,64.397 L97.67,64.397 L97.67,85.947 Z" id="Fill-70" fill="#E4E4E4"></path>
            <path d="M90.746,85.947 L89.204,85.947 L89.204,67.476 L90.746,67.476 L90.746,85.947 Z" id="Fill-71" fill="#E4E4E4"></path>
            <path d="M121.909,85.947 L120.367,85.947 L120.367,67.476 L121.909,67.476 L121.909,85.947 Z" id="Fill-72" fill="#ECBD00"></path>
            <path d="M87.281,85.947 L85.741,85.947 L85.741,70.555 L87.281,70.555 L87.281,85.947 Z" id="Fill-73" fill="#E4E4E4"></path>
            <path d="M135.724,85.947 L134.184,85.947 L134.184,70.555 L135.724,70.555 L135.724,85.947 Z" id="Fill-74" fill="#ECBD00"></path>
            <path d="M80.358,85.947 L78.816,85.947 L78.816,73.632 L80.358,73.632 L80.358,85.947 Z" id="Fill-75" fill="#E4E4E4"></path>
            <path d="M73.575,85.947 L72.035,85.947 L72.035,76.712 L73.575,76.712 L73.575,85.947 Z" id="Fill-76" fill="#E4E4E4"></path>
            <path d="M101.133,85.947 L99.591,85.947 L99.591,76.712 L101.133,76.712 L101.133,85.947 Z" id="Fill-77" fill="#E4E4E4"></path>
            <path d="M153.072,85.947 L151.53,85.947 L151.53,76.712 L153.072,76.712 L153.072,85.947 Z" id="Fill-78" fill="#ECBD00"></path>
            <path d="M159.998,85.947 L158.456,85.947 L158.456,73.632 L159.998,73.632 L159.998,85.947 Z" id="Fill-79" fill="#ECBD00"></path>
            <path d="M156.532,85.947 L154.992,85.947 L154.992,79.791 L156.532,79.791 L156.532,85.947 Z" id="Fill-80" fill="#ECBD00"></path>
            <path d="M149.609,85.947 L148.067,85.947 L148.067,79.791 L149.609,79.791 L149.609,85.947 Z" id="Fill-81" fill="#ECBD00"></path>
            <path d="M163.459,85.947 L161.917,85.947 L161.917,79.791 L163.459,79.791 L163.459,85.947 Z" id="Fill-82" fill="#ECBD00"></path>
            <path d="M125.371,85.947 L123.831,85.947 L123.831,82.693 L125.371,82.693 L125.371,85.947 Z" id="Fill-83" fill="#ECBD00"></path>
            <path d="M139.343,85.947 L137.801,85.947 L137.801,82.693 L139.343,82.693 L139.343,85.947 Z" id="Fill-84" fill="#ECBD00"></path>
            <path d="M184.235,85.947 L182.695,85.947 L182.695,82.693 L184.235,82.693 L184.235,85.947 Z" id="Fill-85" fill="#ECBD00"></path>
            <path d="M194.501,85.947 L192.959,85.947 L192.959,82.693 L194.501,82.693 L194.501,85.947 Z" id="Fill-86" fill="#ECBD00"></path>
            <path d="M63.079,85.947 L61.537,85.947 L61.537,76.712 L63.079,76.712 L63.079,85.947 Z" id="Fill-87" fill="#E4E4E4"></path>
            <path d="M56.12,85.947 L54.578,85.947 L54.578,76.712 L56.12,76.712 L56.12,85.947 Z" id="Fill-88" fill="#E4E4E4"></path>
            <path d="M45.733,85.947 L44.191,85.947 L44.191,76.712 L45.733,76.712 L45.733,85.947 Z" id="Fill-89" fill="#E4E4E4"></path>
            <path d="M208.594,85.947 L207.052,85.947 L207.052,5.56 L208.594,5.56 L208.594,85.947 Z" id="Fill-90" fill="#ECBD00"></path>
            <path d="M281.186,85.947 L279.644,85.947 L279.644,16.212 L281.186,16.212 L281.186,85.947 Z" id="Fill-91" fill="#ECBD00"></path>
            <path d="M327.091,85.947 L328.634,85.947 L328.634,0.464 L327.091,0.464 L327.091,85.947 Z" id="Fill-92" fill="#ECBD00"></path>
            <path d="M350.582,85.947 L349.042,85.947 L349.042,36.206 L350.582,36.206 L350.582,85.947 Z" id="Fill-93" fill="#ECBD00"></path>
            <path d="M295.037,85.947 L293.495,85.947 L293.495,17.875 L295.037,17.875 L295.037,85.947 Z" id="Fill-94" fill="#ECBD00"></path>
            <path d="M270.797,85.947 L269.257,85.947 L269.257,24.031 L270.797,24.031 L270.797,85.947 Z" id="Fill-95" fill="#ECBD00"></path>
            <path d="M14.568,85.947 L13.028,85.947 L13.028,82.552 L14.568,82.552 L14.568,85.947 Z" id="Fill-96" fill="#E4E4E4"></path>
            <path d="M111.52,85.947 L109.978,85.947 L109.978,27.599 L111.52,27.599 L111.52,85.947 Z" id="Fill-100" fill="#ECBD00"></path>
            <path d="M128.833,85.947 L127.293,85.947 L127.293,27.599 L128.833,27.599 L128.833,85.947 Z" id="Fill-101" fill="#ECBD00"></path>
            <path d="M104.597,85.947 L103.053,85.947 L103.053,49.006 L104.597,49.006 L104.597,85.947 Z" id="Fill-102" fill="#ECBD00"></path>
            <path d="M180.771,85.947 L179.229,85.947 L179.229,42.504 L180.771,42.504 L180.771,85.947 Z" id="Fill-104" fill="#ECBD00"></path>
            <path d="M205.011,85.947 L203.469,85.947 L203.469,45.581 L205.011,45.581 L205.011,85.947 Z" id="Fill-105" fill="#ECBD00"></path>
            <path d="M250.023,85.947 L248.481,85.947 L248.481,45.581 L250.023,45.581 L250.023,85.947 Z" id="Fill-106" fill="#ECBD00"></path>
            <path d="M274.262,85.947 L272.72,85.947 L272.72,45.581 L274.262,45.581 L274.262,85.947 Z" id="Fill-107" fill="#ECBD00"></path>
            <path d="M277.724,85.947 L276.182,85.947 L276.182,45.581 L277.724,45.581 L277.724,85.947 Z" id="Fill-108" fill="#ECBD00"></path>
            <path d="M333.125,85.947 L331.583,85.947 L331.583,45.581 L333.125,45.581 L333.125,85.947 Z" id="Fill-109" fill="#ECBD00"></path>
            <path d="M267.335,85.947 L265.795,85.947 L265.795,45.581 L267.335,45.581 L267.335,85.947 Z" id="Fill-110" fill="#ECBD00"></path>
            <path d="M301.962,85.947 L300.42,85.947 L300.42,36.689 L301.962,36.689 L301.962,85.947 Z" id="Fill-111" fill="#ECBD00"></path>
            <path d="M298.5,85.947 L296.956,85.947 L296.956,33.956 L298.5,33.956 L298.5,85.947 Z" id="Fill-112" fill="#ECBD00"></path>
            <path d="M256.948,85.947 L255.408,85.947 L255.408,33.956 L256.948,33.956 L256.948,85.947 Z" id="Fill-113" fill="#ECBD00"></path>
            <path d="M198.084,85.947 L196.544,85.947 L196.544,48.66 L198.084,48.66 L198.084,85.947 Z" id="Fill-114" fill="#ECBD00"></path>
            <path d="M108.059,85.947 L106.515,85.947 L106.515,58.241 L108.059,58.241 L108.059,85.947 Z" id="Fill-122" fill="#ECBD00"></path>
            <path d="M146.147,85.947 L144.605,85.947 L144.605,58.241 L146.147,58.241 L146.147,85.947 Z" id="Fill-123" fill="#ECBD00"></path>
            <path d="M288.113,85.947 L286.571,85.947 L286.571,58.241 L288.113,58.241 L288.113,85.947 Z" id="Fill-124" fill="#ECBD00"></path>
            <path d="M319.276,85.947 L317.734,85.947 L317.734,58.241 L319.276,58.241 L319.276,85.947 Z" id="Fill-125" fill="#ECBD00"></path>
            <path d="M343.657,85.947 L342.115,85.947 L342.115,55.162 L343.657,55.162 L343.657,85.947 Z" id="Fill-126" fill="#ECBD00"></path>
            <path d="M312.349,85.947 L310.807,85.947 L310.807,55.162 L312.349,55.162 L312.349,85.947 Z" id="Fill-127" fill="#ECBD00"></path>
            <path d="M315.812,85.947 L314.272,85.947 L314.272,52.083 L315.812,52.083 L315.812,85.947 Z" id="Fill-128" fill="#ECBD00"></path>
            <path d="M305.425,85.947 L303.883,85.947 L303.883,52.083 L305.425,52.083 L305.425,85.947 Z" id="Fill-129" fill="#ECBD00"></path>
            <path d="M308.853,85.947 L307.311,85.947 L307.311,55.162 L308.853,55.162 L308.853,85.947 Z" id="Fill-130" fill="#ECBD00"></path>
            <path d="M284.65,85.947 L283.106,85.947 L283.106,61.277 L284.65,61.277 L284.65,85.947 Z" id="Fill-131" fill="#ECBD00"></path>
            <path d="M218.86,85.947 L217.318,85.947 L217.318,61.277 L218.86,61.277 L218.86,85.947 Z" id="Fill-132" fill="#ECBD00"></path>
            <path d="M322.738,85.947 L321.196,85.947 L321.196,64.397 L322.738,64.397 L322.738,85.947 Z" id="Fill-133" fill="#ECBD00"></path>
            <path d="M232.711,85.947 L231.167,85.947 L231.167,64.397 L232.711,64.397 L232.711,85.947 Z" id="Fill-134" fill="#ECBD00"></path>
            <path d="M201.547,85.947 L200.007,85.947 L200.007,67.303 L201.547,67.303 L201.547,85.947 Z" id="Fill-135" fill="#ECBD00"></path>
            <path d="M215.396,85.947 L213.856,85.947 L213.856,70.555 L215.396,70.555 L215.396,85.947 Z" id="Fill-136" fill="#ECBD00"></path>
            <path d="M222.324,85.947 L220.78,85.947 L220.78,70.555 L222.324,70.555 L222.324,85.947 Z" id="Fill-137" fill="#ECBD00"></path>
            <path d="M260.412,85.947 L258.87,85.947 L258.87,70.555 L260.412,70.555 L260.412,85.947 Z" id="Fill-138" fill="#ECBD00"></path>
            <path d="M253.486,85.947 L251.946,85.947 L251.946,73.632 L253.486,73.632 L253.486,85.947 Z" id="Fill-139" fill="#ECBD00"></path>
            <path d="M340.195,85.947 L338.653,85.947 L338.653,73.632 L340.195,73.632 L340.195,85.947 Z" id="Fill-140" fill="#ECBD00"></path>
            <path d="M364.431,85.947 L362.891,85.947 L362.891,76.572 L364.431,76.572 L364.431,85.947 Z" id="Fill-141" fill="#ECBD00"></path>
            <path d="M371.36,85.947 L369.818,85.947 L369.818,79.791 L371.36,79.791 L371.36,85.947 Z" id="Fill-142" fill="#ECBD00"></path>
            <path d="M395.596,85.947 L394.056,85.947 L394.056,79.791 L395.596,79.791 L395.596,85.947 Z" id="Fill-143" fill="#ECBD00"></path>
            <path d="M423.295,85.947 L421.755,85.947 L421.755,79.791 L423.295,79.791 L423.295,85.947 Z" id="Fill-144" fill="#ECBD00"></path>
            <path d="M437.146,85.947 L435.604,85.947 L435.604,82.868 L437.146,82.868 L437.146,85.947 Z" id="Fill-145" fill="#ECBD00"></path>
            <path d="M388.67,85.947 L387.128,85.947 L387.128,82.868 L388.67,82.868 L388.67,85.947 Z" id="Fill-146" fill="#ECBD00"></path>
            <path d="M360.969,85.947 L359.429,85.947 L359.429,82.868 L360.969,82.868 L360.969,85.947 Z" id="Fill-147" fill="#ECBD00"></path>
            <path d="M354.044,85.947 L352.502,85.947 L352.502,82.868 L354.044,82.868 L354.044,85.947 Z" id="Fill-148" fill="#ECBD00"></path>
            <path d="M426.758,85.947 L425.218,85.947 L425.218,76.572 L426.758,76.572 L426.758,85.947 Z" id="Fill-149" fill="#ECBD00"></path>
            <path d="M246.561,85.947 L245.017,85.947 L245.017,73.632 L246.561,73.632 L246.561,85.947 Z" id="Fill-150" fill="#ECBD00"></path>
            <path d="M225.785,85.947 L224.243,85.947 L224.243,79.791 L225.785,79.791 L225.785,85.947 Z" id="Fill-151" fill="#ECBD00"></path>
            <path d="M263.873,85.947 L262.333,85.947 L262.333,76.712 L263.873,76.712 L263.873,85.947 Z" id="Fill-152" fill="#ECBD00"></path>
            <path d="M239.636,85.947 L238.094,85.947 L238.094,82.868 L239.636,82.868 L239.636,85.947 Z" id="Fill-153" fill="#ECBD00"></path>
            <path d="M243.098,85.947 L241.556,85.947 L241.556,82.868 L243.098,82.868 L243.098,85.947 Z" id="Fill-154" fill="#ECBD00"></path>
            <path d="M229.249,85.947 L227.707,85.947 L227.707,73.632 L229.249,73.632 L229.249,85.947 Z" id="Fill-155" fill="#ECBD00"></path>
            <path d="M291.575,85.947 L290.033,85.947 L290.033,70.555 L291.575,70.555 L291.575,85.947 Z" id="Fill-156" fill="#ECBD00"></path>
            <path d="M399.057,85.947 L397.515,85.947 L397.515,70.555 L399.057,70.555 L399.057,85.947 Z" id="Fill-157" fill="#ECBD00"></path>
            <path d="M405.983,85.947 L404.441,85.947 L404.441,67.476 L405.983,67.476 L405.983,85.947 Z" id="Fill-158" fill="#ECBD00"></path>
            <path d="M347.12,85.947 L345.578,85.947 L345.578,64.397 L347.12,64.397 L347.12,85.947 Z" id="Fill-159" fill="#ECBD00"></path>
            <path d="M392.132,85.947 L390.59,85.947 L390.59,64.397 L392.132,64.397 L392.132,85.947 Z" id="Fill-160" fill="#ECBD00"></path>
            <path d="M412.908,85.947 L411.368,85.947 L411.368,64.397 L412.908,64.397 L412.908,85.947 Z" id="Fill-161" fill="#ECBD00"></path>
            <path d="M450.996,85.947 L449.454,85.947 L449.454,52.083 L450.996,52.083 L450.996,85.947 Z" id="Fill-162" fill="#ECBD00"></path>
            <path d="M326.201,85.947 L324.659,85.947 L324.659,58.241 L326.201,58.241 L326.201,85.947 Z" id="Fill-163" fill="#ECBD00"></path>
            <path d="M132.296,85.947 L130.752,85.947 L130.752,61.32 L132.296,61.32 L132.296,85.947 Z" id="Fill-164" fill="#ECBD00"></path>
            <path d="M121.909,85.947 L120.367,85.947 L120.367,67.476 L121.909,67.476 L121.909,85.947 Z" id="Fill-168" fill="#ECBD00"></path>
            <path d="M135.724,85.947 L134.184,85.947 L134.184,70.555 L135.724,70.555 L135.724,85.947 Z" id="Fill-170" fill="#ECBD00"></path>
            <path d="M153.072,85.947 L151.53,85.947 L151.53,76.712 L153.072,76.712 L153.072,85.947 Z" id="Fill-174" fill="#ECBD00"></path>
            <path d="M159.998,85.947 L158.456,85.947 L158.456,73.632 L159.998,73.632 L159.998,85.947 Z" id="Fill-175" fill="#ECBD00"></path>
            <path d="M156.532,85.947 L154.992,85.947 L154.992,79.791 L156.532,79.791 L156.532,85.947 Z" id="Fill-176" fill="#ECBD00"></path>
            <path d="M149.609,85.947 L148.067,85.947 L148.067,79.791 L149.609,79.791 L149.609,85.947 Z" id="Fill-177" fill="#ECBD00"></path>
            <path d="M163.459,85.947 L161.917,85.947 L161.917,79.791 L163.459,79.791 L163.459,85.947 Z" id="Fill-178" fill="#ECBD00"></path>
            <path d="M125.371,85.947 L123.831,85.947 L123.831,82.693 L125.371,82.693 L125.371,85.947 Z" id="Fill-179" fill="#ECBD00"></path>
            <path d="M139.343,85.947 L137.801,85.947 L137.801,82.693 L139.343,82.693 L139.343,85.947 Z" id="Fill-180" fill="#ECBD00"></path>
            <path d="M184.235,85.947 L182.695,85.947 L182.695,82.693 L184.235,82.693 L184.235,85.947 Z" id="Fill-181" fill="#ECBD00"></path>
            <path d="M194.501,85.947 L192.959,85.947 L192.959,82.693 L194.501,82.693 L194.501,85.947 Z" id="Fill-182" fill="#ECBD00"></path>
            <path d="M208.594,85.947 L207.052,85.947 L207.052,5.56 L208.594,5.56 L208.594,85.947 Z" id="Fill-186" fill="#ECBD00"></path>
            <path d="M281.186,85.947 L279.644,85.947 L279.644,16.212 L281.186,16.212 L281.186,85.947 Z" id="Fill-187" fill="#ECBD00"></path>
            <path d="M327.091,85.947 L328.634,85.947 L328.634,0.464 L327.091,0.464 L327.091,85.947 Z" id="Fill-188" fill="#ECBD00"></path>
            <path d="M350.582,85.947 L349.042,85.947 L349.042,36.206 L350.582,36.206 L350.582,85.947 Z" id="Fill-189" fill="#ECBD00"></path>
            <path d="M295.037,85.947 L293.495,85.947 L293.495,17.875 L295.037,17.875 L295.037,85.947 Z" id="Fill-190" fill="#ECBD00"></path>
            <path d="M270.797,85.947 L269.257,85.947 L269.257,24.031 L270.797,24.031 L270.797,85.947 Z" id="Fill-191" fill="#ECBD00"></path>
            <text id="01-07-14" font-family="SourceSansPro-Regular, Source Sans Pro" font-size="14" font-weight="normal" fill="#CACACA">
                <tspan x="0" y="115.039969">01-07-14</tspan>
            </text>
            <text id="31-12-14" font-family="SourceSansPro-Regular, Source Sans Pro" font-size="14" font-weight="normal" fill="#CACACA">
                <tspan x="415.636" y="115.039969">31-12-14</tspan>
            </text>
        </g>
    </g>
</svg>