<?xml version="1.0" encoding="UTF-8" standalone="no"?>
<svg width="143px" height="47px" viewBox="0 0 143 47" version="1.1" xmlns="http://www.w3.org/2000/svg" xmlns:xlink="http://www.w3.org/1999/xlink">
    <!-- Generator: Sketch 3.6.1 (26313) - http://www.bohemiancoding.com/sketch -->
    <title>Group 4</title>
    <desc>Created with Sketch.</desc>
    <defs></defs>
    <g id="Page-1" stroke="none" stroke-width="1" fill="none" fill-rule="evenodd">
        <g id="Group-4" transform="translate(1.000000, 1.000000)">
            <g id="Group">
                <path d="M25.4694569,0.792509043 C25.9985441,-0.336384665 26.5269015,2.85152394 27.0552589,4.97595764 C27.5836164,7.10039135 28.1119738,8.16386625 28.6403312,8.56224999 C29.1694184,8.95979502 29.6970461,8.694765 30.2261333,7.96425503 C30.7552205,7.23458376 31.2828481,6.03943255 31.8119353,7.23458376 C32.3402927,8.42973498 32.8686501,12.0160273 33.408684,13.5433048 C33.947988,15.0705822 34.4982387,14.5396835 35.036813,13.9416885 C35.5768468,13.3436935 36.1052042,12.6802798 36.6335617,12.4806686 C37.1619191,12.281896 37.6902765,12.5469261 38.2186339,12.6802798 C38.7477211,12.8127948 39.2760786,12.8127948 39.804436,13.6758198 C40.334253,14.5396835 40.8618806,16.2665721 41.3909678,17.0641783 C41.9193252,17.8609458 42.4469529,17.7284308 42.9760401,18.193072 C43.5043975,18.658552 44.0334847,19.7211882 44.8260208,20.1849907 C45.6185569,20.649632 46.6760016,20.5171169 47.4685377,20.2512482 C48.2610738,19.9862182 48.7916206,19.5869957 49.3185185,19.1894507 C49.8461461,18.7902283 50.3752333,18.3918445 50.9035907,18.458102 C51.4326779,18.5251982 51.9617651,19.0552583 52.488663,18.9890008 C53.0192097,18.9227433 53.5461076,18.2584908 54.0751948,18.458102 C54.604282,18.6577133 55.1326394,19.7203495 55.6617266,20.2504095 C56.1886245,20.782147 56.7177117,20.782147 57.2467989,21.0480157 C57.7751563,21.3130457 58.302784,21.8447832 58.8333307,21.2467882 C59.3602286,20.649632 59.8893158,18.9227433 60.4176732,18.458102 C60.9453009,17.9934608 61.474388,18.7902283 62.0027455,18.9227433 C62.5332922,19.0552583 63.0609199,18.5243595 63.5892773,18.7231321 C64.1183645,18.9227433 64.6452624,19.8528645 65.1743496,19.0552583 C65.7034368,18.2584908 66.2317942,15.7348347 66.7608814,15.8673497 C67.2877792,16.0007034 67.8168664,18.7902283 68.3459536,19.9853795 C68.8743111,21.1813694 69.4019387,20.782147 69.9310259,20.649632 C70.4593833,20.5171169 70.9884705,20.649632 71.5168279,20.3183444 C72.0459151,19.9853795 72.5750023,19.1894507 73.1033598,19.1223545 C73.6309874,19.0552583 74.1593448,19.7203495 74.6869725,19.3882232 C75.2175192,19.056097 75.7444171,17.7275921 76.2735043,17.7938496 C76.8025915,17.8601071 77.3294894,19.321127 77.8600361,20.3183444 C78.3883935,21.3138844 78.9160212,21.8447832 79.4451084,21.5134956 C79.9734658,21.1813694 80.502553,19.9853795 81.0316402,19.786607 C81.5599976,19.5869957 82.0876253,20.3837632 82.6159827,20.5833744 C83.1450699,20.7829857 83.6741571,20.3846019 84.201055,19.8528645 C84.7301422,19.321127 85.2584996,18.6577133 85.7875868,18.458102 C86.316674,18.2593295 86.8435719,18.5251982 87.372659,19.0552583 C87.9032058,19.586157 88.4286441,20.3837632 88.9577313,20.8484045 C89.4875483,21.3138844 90.0151759,21.4463994 90.5457227,21.3793032 C91.0726206,21.3130457 91.6017078,21.0480157 92.1300652,20.782147 C92.6591524,20.5171169 93.18678,20.2504095 93.7151374,20.5171169 C94.2442246,20.782147 94.7718523,21.5805918 95.3016693,21.8447832 C95.8292969,22.1106519 96.3576543,21.8447832 96.8867415,21.5797531 C97.4158287,21.3138844 97.9427266,21.0480157 98.4718138,21.1142732 C99.0023605,21.1805307 99.5292584,21.5797531 100.058346,21.7785257 C100.586703,21.9772982 101.114331,21.9772982 101.906867,21.8447832 C102.700862,21.7122682 103.756848,21.4463994 104.549384,20.8484045 C105.343379,20.2504095 105.872467,19.321127 106.399364,18.5914558 C106.928452,17.8601071 107.45535,17.330047 107.985896,17.7275921 C108.514983,18.1268145 109.041881,19.4544807 109.834417,20.3183444 C110.628413,21.1813694 111.684398,21.5797531 112.476934,21.7131069 C113.26947,21.8456219 113.798558,21.7131069 114.327645,21.5805918 C114.856002,21.4472381 115.38363,21.3147231 115.911987,20.8492432 C116.441075,20.3846019 116.970162,19.5878345 117.498519,19.7211882 C118.027606,19.8537032 118.554504,20.9163394 119.085051,21.3809806 C119.612679,21.8464606 120.141036,21.7139456 120.668664,20.7167282 C121.197751,19.7211882 121.726108,17.8609458 122.518644,17.5959158 C123.311181,17.3308857 124.368625,18.658552 125.161161,19.5215769 C125.953698,20.3846019 126.482785,20.7829857 127.011142,21.0488544 C127.540229,21.3138844 128.067857,21.4472381 128.597674,21.6460106 C129.126761,21.8447832 129.653659,22.1114906 130.975282,21.2467882 C132.296906,20.3837632 134.410335,18.3910058 135.731959,18.0597183 C137.054312,17.7275921 137.581939,19.056097 138.374476,19.9853795 C139.167012,20.9155007 140.224456,21.4463994 140.752814,21.7131069 L141.281901,21.9781369 L141.281901,23.5725105 L140.752814,23.8375406 C140.224456,24.1034093 139.167012,24.6351467 138.374476,25.5635905 C137.581939,26.4945504 137.052852,27.8222166 135.731959,27.4909291 C134.410335,27.1588029 132.296906,25.1668842 130.975282,24.3030205 C129.653659,23.4391568 129.126761,23.7050255 128.597674,23.9046368 C128.069317,24.1034093 127.540229,24.236763 127.011142,24.501793 C126.482785,24.7676617 125.953698,25.1660455 125.161161,26.0290705 C124.368625,26.8920954 123.311181,28.2206004 122.518644,27.9547317 C121.726108,27.6888629 121.197751,25.830298 120.668664,24.8330806 C120.141036,23.8367019 119.612679,23.7041868 119.085051,24.1688281 C118.554504,24.6334693 118.027606,25.6969442 117.498519,25.8294592 C116.970162,25.9619743 116.441075,25.1652068 115.911987,24.6997268 C115.38363,24.2350856 114.856002,24.1025706 114.327645,23.9692169 C113.797098,23.8358632 113.26947,23.7033481 112.476934,23.8358632 C111.684398,23.9692169 110.628413,24.3667619 109.834417,25.2314643 C109.041881,26.0944893 108.513524,27.4221555 107.985896,27.8213779 C107.45535,28.2206004 106.928452,27.6888629 106.399364,26.9575143 C105.871007,26.2270043 105.343379,25.2977218 104.549384,24.6997268 C103.756848,24.1025706 102.700862,23.8358632 101.906867,23.7033481 C101.114331,23.5708331 100.586703,23.5708331 100.058346,23.7696056 C99.5292584,23.9692169 99.0023605,24.3667619 98.4718138,24.4338581 C97.9427266,24.5001156 97.4158287,24.2350856 96.8867415,23.9692169 C96.3576543,23.7033481 95.8292969,23.4374794 95.3016693,23.7033481 C94.7718523,23.9692169 94.2442246,24.7659843 93.7151374,25.0318531 C93.18678,25.2968831 92.6591524,25.0318531 92.1300652,24.7659843 C91.6017078,24.5001156 91.0726206,24.2350856 90.5457227,24.1688281 C90.0151759,24.1025706 89.4875483,24.2350856 88.9577313,24.6997268 C88.4286441,25.1652068 87.9032058,25.9611356 87.372659,26.492873 C86.8435719,27.0237718 86.316674,27.2896405 85.7875868,27.090868 C85.2584996,26.890418 84.7301422,26.2270043 84.201055,25.6969442 C83.6741571,25.1643681 83.1450699,24.7659843 82.6159827,24.9647569 C82.0876253,25.1643681 81.5599976,25.9611356 81.0316402,25.762363 C80.502553,25.5619131 79.9734658,24.3667619 79.4451084,24.0354744 C78.9160212,23.7033481 78.3883935,24.2342469 77.8600361,25.2306256 C77.3294894,26.2253269 76.8025915,27.6871855 76.2735043,27.7542817 C75.7444171,27.8205392 75.2175192,26.492873 74.6869725,26.1599081 C74.1593448,25.8286205 73.6309874,26.4920343 73.1033598,26.4257768 C72.5750023,26.360358 72.0459151,25.5619131 71.5168279,25.2306256 C70.9884705,24.8984994 70.4593833,25.0318531 69.9310259,24.8984994 C69.4019387,24.7651456 68.8743111,24.3667619 68.3459536,25.5619131 C67.8168664,26.757903 67.2877792,29.5474279 66.7608814,29.6807816 C66.2317942,29.8132966 65.7034368,27.2888018 65.1743496,26.492873 C64.6452624,25.6969442 64.1183645,26.625388 63.5892773,26.8249992 C63.0609199,27.0237718 62.5332922,26.492873 62.0027455,26.625388 C61.474388,26.757903 60.9453009,27.5555092 60.4176732,27.090868 C59.8893158,26.625388 59.3602286,24.8984994 58.8333307,24.3013431 C58.302784,23.7033481 57.7751563,24.2350856 57.2467989,24.5001156 C56.7177117,24.7659843 56.1886245,24.7659843 55.6617266,25.2977218 C55.1326394,25.8294592 54.604282,26.890418 54.0751948,27.090868 C53.5461076,27.2896405 53.0192097,26.625388 52.488663,26.5591305 C51.9617651,26.492873 51.4326779,27.0237718 50.9035907,27.090868 C50.3752333,27.1571255 49.8461461,26.7587417 49.3185185,26.360358 C48.790161,25.9611356 48.2610738,25.5619131 47.4685377,25.2977218 C46.6760016,25.0318531 45.6185569,24.8984994 44.8260208,25.3639793 C44.0334847,25.8294592 43.5043975,26.890418 42.9760401,27.355898 C42.4469529,27.8213779 41.9193252,27.6888629 41.3909678,28.4847917 C40.8618806,29.2823979 40.334253,31.0092865 39.804436,31.8723115 C39.2760786,32.7353365 38.7477211,32.7353365 38.2186339,32.8678515 C37.6902765,33.0012052 37.1619191,33.267074 36.6335617,33.0674627 C36.1044745,32.8678515 35.5768468,32.2044378 35.036813,31.6064428 C34.4982387,31.0076091 33.947988,30.4767104 33.408684,32.0048265 C32.8686501,33.5312653 32.3395629,37.1183963 31.8119353,38.3135475 C31.2828481,39.5086988 30.7552205,38.3135475 30.2261333,37.5821989 C29.6970461,36.8516889 29.1694184,36.5866589 28.6403312,36.9850426 C28.1119738,37.3834264 27.5836164,38.4460626 27.0552589,40.571335 C26.5269015,42.6957687 25.9985441,45.8828386 25.4694569,44.7547836" id="Page-1" stroke="#CACACA" fill="#E4E4E4"></path>
                <path d="M5.52814597,0 L0,0 L0,43.7239152 L5.52814597,43.7239152" id="Page-1" stroke="#4A4A4A"></path>
            </g>
        </g>
    </g>
</svg>